<svg width="133" height="25" viewBox="0 0 133 25" fill="none" xmlns="http://www.w3.org/2000/svg">
<path d="M14.91 20.01H6.57L5.19 24H0.78L8.31 3.03H13.2L20.73 24H16.29L14.91 20.01ZM13.77 16.65L10.74 7.89L7.71 16.65H13.77ZM38.6346 7.38V24H34.4046V21.9C33.8646 22.62 33.1546 23.19 32.2746 23.61C31.4146 24.01 30.4746 24.21 29.4546 24.21C28.1546 24.21 27.0046 23.94 26.0046 23.4C25.0046 22.84 24.2146 22.03 23.6346 20.97C23.0746 19.89 22.7946 18.61 22.7946 17.13V7.38H26.9946V16.53C26.9946 17.85 27.3246 18.87 27.9846 19.59C28.6446 20.29 29.5446 20.64 30.6846 20.64C31.8446 20.64 32.7546 20.29 33.4146 19.59C34.0746 18.87 34.4046 17.85 34.4046 16.53V7.38H38.6346ZM47.0686 10.83V18.87C47.0686 19.43 47.1986 19.84 47.4586 20.1C47.7386 20.34 48.1986 20.46 48.8386 20.46H50.7886V24H48.1486C44.6086 24 42.8386 22.28 42.8386 18.84V10.83H40.8586V7.38H42.8386V3.27H47.0686V7.38H50.7886V10.83H47.0686ZM60.5895 24.27C58.9895 24.27 57.5495 23.92 56.2695 23.22C54.9895 22.5 53.9795 21.49 53.2395 20.19C52.5195 18.89 52.1595 17.39 52.1595 15.69C52.1595 13.99 52.5295 12.49 53.2695 11.19C54.0295 9.89 55.0595 8.89 56.3595 8.19C57.6595 7.47 59.1095 7.11 60.7095 7.11C62.3095 7.11 63.7595 7.47 65.0595 8.19C66.3595 8.89 67.3795 9.89 68.1195 11.19C68.8795 12.49 69.2595 13.99 69.2595 15.69C69.2595 17.39 68.8695 18.89 68.0895 20.19C67.3295 21.49 66.2895 22.5 64.9695 23.22C63.6695 23.92 62.2095 24.27 60.5895 24.27ZM60.5895 20.61C61.3495 20.61 62.0595 20.43 62.7195 20.07C63.3995 19.69 63.9395 19.13 64.3395 18.39C64.7395 17.65 64.9395 16.75 64.9395 15.69C64.9395 14.11 64.5195 12.9 63.6795 12.06C62.8595 11.2 61.8495 10.77 60.6495 10.77C59.4495 10.77 58.4395 11.2 57.6195 12.06C56.8195 12.9 56.4195 14.11 56.4195 15.69C56.4195 17.27 56.8095 18.49 57.5895 19.35C58.3895 20.19 59.3895 20.61 60.5895 20.61ZM92.3803 7.14C94.4203 7.14 96.0603 7.77 97.3003 9.03C98.5603 10.27 99.1903 12.01 99.1903 14.25V24H94.9903V14.82C94.9903 13.52 94.6603 12.53 94.0003 11.85C93.3403 11.15 92.4403 10.8 91.3003 10.8C90.1603 10.8 89.2503 11.15 88.5703 11.85C87.9103 12.53 87.5803 13.52 87.5803 14.82V24H83.3803V14.82C83.3803 13.52 83.0503 12.53 82.3903 11.85C81.7303 11.15 80.8303 10.8 79.6903 10.8C78.5303 10.8 77.6103 11.15 76.9303 11.85C76.2703 12.53 75.9403 13.52 75.9403 14.82V24H71.7403V7.38H75.9403V9.39C76.4803 8.69 77.1703 8.14 78.0103 7.74C78.8703 7.34 79.8103 7.14 80.8303 7.14C82.1303 7.14 83.2903 7.42 84.3103 7.98C85.3303 8.52 86.1203 9.3 86.6803 10.32C87.2203 9.36 88.0003 8.59 89.0203 8.01C90.0603 7.43 91.1803 7.14 92.3803 7.14ZM104.706 5.4C103.966 5.4 103.346 5.17 102.846 4.71C102.366 4.23 102.126 3.64 102.126 2.94C102.126 2.24 102.366 1.66 102.846 1.2C103.346 0.719999 103.966 0.479999 104.706 0.479999C105.446 0.479999 106.056 0.719999 106.536 1.2C107.036 1.66 107.286 2.24 107.286 2.94C107.286 3.64 107.036 4.23 106.536 4.71C106.056 5.17 105.446 5.4 104.706 5.4ZM106.776 7.38V24H102.576V7.38H106.776ZM109.245 15.69C109.245 13.97 109.595 12.47 110.295 11.19C110.995 9.89 111.965 8.89 113.205 8.19C114.445 7.47 115.865 7.11 117.465 7.11C119.525 7.11 121.225 7.63 122.565 8.67C123.925 9.69 124.835 11.13 125.295 12.99H120.765C120.525 12.27 120.115 11.71 119.535 11.31C118.975 10.89 118.275 10.68 117.435 10.68C116.235 10.68 115.285 11.12 114.585 12C113.885 12.86 113.535 14.09 113.535 15.69C113.535 17.27 113.885 18.5 114.585 19.38C115.285 20.24 116.235 20.67 117.435 20.67C119.135 20.67 120.245 19.91 120.765 18.39H125.295C124.835 20.19 123.925 21.62 122.565 22.68C121.205 23.74 119.505 24.27 117.465 24.27C115.865 24.27 114.445 23.92 113.205 23.22C111.965 22.5 110.995 21.5 110.295 20.22C109.595 18.92 109.245 17.41 109.245 15.69ZM129.632 24.21C128.872 24.21 128.242 23.98 127.742 23.52C127.262 23.04 127.022 22.45 127.022 21.75C127.022 21.05 127.262 20.47 127.742 20.01C128.242 19.53 128.872 19.29 129.632 19.29C130.372 19.29 130.982 19.53 131.462 20.01C131.942 20.47 132.182 21.05 132.182 21.75C132.182 22.45 131.942 23.04 131.462 23.52C130.982 23.98 130.372 24.21 129.632 24.21Z" fill="white"/>
</svg>
