<svg width="54" height="54" viewBox="0 0 54 54" fill="none" xmlns="http://www.w3.org/2000/svg">
<g clip-path="url(#clip0_522_4875)">
<path d="M13.5977 22.4C13.4126 22.97 13.5653 23.5956 13.9922 24.0161L19.3115 29.2545L18.088 36.6187C17.9898 37.2098 18.2339 37.8057 18.7188 38.1579C19.2036 38.51 19.8458 38.5581 20.3776 38.282L27.0023 34.8426L33.6271 38.282C33.8566 38.4012 34.1067 38.4599 34.3558 38.4599C34.6839 38.4599 35.0103 38.358 35.2859 38.1578C35.7707 37.8056 36.0149 37.2097 35.9167 36.6186L34.6931 29.2544L40.0124 24.016C40.4393 23.5955 40.5922 22.9699 40.4069 22.3999C40.2217 21.83 39.7305 21.4136 39.1379 21.3244L31.7564 20.2129L28.4174 13.5349C28.1494 12.999 27.6016 12.6604 27.0023 12.6604C26.403 12.6604 25.8554 12.999 25.5873 13.5349L22.2483 20.2129L14.8668 21.3244C14.2742 21.4137 13.7829 21.8301 13.5977 22.4V22.4ZM23.5316 23.2195C24.0408 23.1428 24.4808 22.8232 24.711 22.3626L27.0023 17.7799L29.2936 22.3626C29.5239 22.8232 29.9639 23.1428 30.4731 23.2195L35.5376 23.9821L31.8879 27.5764C31.521 27.9377 31.353 28.4549 31.4373 28.9629L32.2769 34.0159L27.7313 31.656C27.5028 31.5373 27.2526 31.4781 27.0023 31.4781C26.752 31.4781 26.5019 31.5374 26.2733 31.656L21.7278 34.0159L22.5673 28.9629C22.6517 28.4549 22.4836 27.9377 22.1167 27.5764L18.467 23.9821L23.5316 23.2195Z" fill="#1F99F1"/>
<path d="M52.8221 30.9949C52.6738 30.9557 49.9979 30.2695 47.1774 30.8206C47.4263 29.6094 47.5635 28.3905 47.5909 27.1761C49.1756 26.4785 51.8871 24.9632 53.1664 22.3589C54.9979 18.6303 53.2392 14.1815 53.1634 13.994C52.8551 13.2309 52.0132 12.8316 51.2276 13.0757C51.0492 13.1311 47.3 14.3238 45.1828 17.1751C44.5692 16.0349 43.8408 14.9395 42.9994 13.9037C43.6662 12.3871 44.6029 9.51394 43.725 6.72253C42.4787 2.75979 38.1364 0.752525 37.9521 0.668994C37.2179 0.336138 36.3504 0.608878 35.9388 1.30222C35.8355 1.47614 33.4239 5.60763 34.6702 9.57037C35.7719 13.0733 39.2921 15.0478 40.2217 15.5166C49.8762 26.7659 41.83 44.2314 27.0009 44.2314C12.1326 44.2314 4.04901 26.6774 13.8723 15.4103C15.0058 14.8201 18.225 12.8941 19.288 9.5865C20.5589 5.63157 18.1731 1.48521 18.0709 1.31066C17.6636 0.614784 16.7981 0.33656 16.0615 0.664881C15.8767 0.747251 11.522 2.72751 10.251 6.68245C9.34033 9.51658 10.3073 12.4485 10.9662 13.9472C10.1414 14.9665 9.42101 16.0461 8.81109 17.1734C6.67716 14.3339 2.89931 13.2868 2.71959 13.2384C1.94778 13.0307 1.1419 13.4313 0.841842 14.1723C0.765905 14.3599 -0.996249 18.8072 0.83235 22.5372C2.10651 25.1362 4.79867 26.5673 6.40073 27.2197C6.43195 28.4359 6.57285 29.6503 6.82049 30.8488C4.00883 30.2868 1.33743 30.9543 1.18904 30.9924C0.366288 31.2041 -0.142488 32.0278 0.0367015 32.8583C0.080787 33.0628 1.15803 37.8907 4.69669 40.0226C6.24316 40.9544 7.98275 41.222 9.47184 41.222C10.4969 41.222 11.4029 41.0951 12.0453 40.9705C12.7695 41.7455 13.5488 42.4586 14.3766 43.105C13.6339 43.3327 12.8943 43.663 12.204 44.1331C8.77038 46.4713 8.10351 51.2084 8.07682 51.409C7.9703 52.2083 8.48213 52.9598 9.26492 53.1535C9.36184 53.1776 10.5446 53.4613 12.1305 53.4613C13.7572 53.4613 15.8083 53.1626 17.5468 51.9786C19.6436 50.5507 20.7085 48.2284 21.226 46.5907C23.0635 47.1179 25.0016 47.3954 27.0008 47.3954C28.9724 47.3954 30.8847 47.1252 32.6995 46.6116C33.2245 48.2474 34.3175 50.6217 36.4732 52.0529C38.1704 53.1798 40.1509 53.4728 41.7517 53.4728C43.4152 53.4728 44.6686 53.1564 44.7684 53.1305C45.5489 52.9276 46.0517 52.1702 45.9359 51.3722C45.9069 51.172 45.1845 46.443 41.7238 44.1452C41.0346 43.6877 40.2989 43.368 39.5607 43.1492C40.4249 42.4789 41.2368 41.7363 41.9886 40.9266C42.6501 41.058 43.5484 41.1847 44.558 41.1847C46.0264 41.1847 47.7271 40.9164 49.2627 40.0041C52.8152 37.8936 53.918 33.0707 53.9632 32.8664C54.1466 32.0374 53.643 31.2115 52.8221 30.9949V30.9949ZM15.7657 49.3635C14.4834 50.2368 12.8117 50.3515 11.6026 50.2864C11.9864 49.1362 12.7066 47.6188 13.9848 46.7484C15.2673 45.875 16.9393 45.7607 18.1479 45.8254C17.7641 46.9757 17.0439 48.4931 15.7657 49.3635V49.3635ZM13.2633 7.65054C13.7383 6.1723 14.9882 5.05371 15.9816 4.36216C16.3865 5.50374 16.7505 7.1407 16.2756 8.61852C15.801 10.0954 14.553 11.2133 13.559 11.9054C13.1549 10.7623 12.7903 9.12276 13.2633 7.65054V7.65054ZM3.67323 21.1444C2.98389 19.7385 3.11583 18.0494 3.35535 16.8604C4.49799 17.3978 6.00639 18.3357 6.70057 19.7516C6.91921 20.1977 7.06823 20.7058 7.14565 21.2644C6.9074 22.1049 6.72483 22.9611 6.59975 23.8288C5.45395 23.2235 4.25109 22.323 3.67323 21.1444ZM6.32943 37.3125C4.99822 36.5105 4.15237 34.9918 3.66701 33.8155C4.92102 33.7273 6.63613 33.8034 7.96228 34.6024C7.9665 34.6049 7.97062 34.6078 7.97473 34.6103C8.05056 34.7942 8.1284 34.9775 8.20961 35.1598C8.66343 36.1785 9.18771 37.1447 9.77443 38.0548C8.68295 38.0923 7.39213 37.9527 6.32943 37.3125ZM42.3984 50.2886C41.1885 50.3671 39.5114 50.2724 38.2233 49.417C36.9307 48.5587 36.1939 47.0533 35.7981 45.9095C37.0085 45.8311 38.6852 45.9256 39.9734 46.7811C41.2658 47.6393 42.0025 49.1441 42.3984 50.2886ZM47.3 19.7483C48.0018 18.3194 49.5058 17.3265 50.6571 16.7406C50.8873 17.9284 51.0026 19.5873 50.3263 20.9638C49.7415 22.1545 48.531 23.1 47.375 23.7528C47.2512 22.9244 47.0754 22.1039 46.8483 21.2956C46.9248 20.7232 47.0763 20.2036 47.3 19.7483ZM37.6884 8.62116C37.2225 7.14007 37.5969 5.50501 38.0086 4.36669C38.9984 5.06489 40.2409 6.19107 40.7066 7.67184C41.1724 9.15261 40.7983 10.7871 40.3862 11.9262C39.3964 11.228 38.1541 10.1019 37.6884 8.62116ZM47.6466 37.2839C46.5914 37.9108 45.324 38.0484 44.2454 38.0098C44.8179 37.1162 45.3303 36.1688 45.7751 35.1709C45.8653 34.9684 45.9514 34.7651 46.0349 34.5613C47.3709 33.7696 49.0781 33.7034 50.3261 33.7998C49.8325 34.9754 48.977 36.4936 47.6466 37.2839V37.2839Z" fill="#1F99F1"/>
</g>
<defs>
<clipPath id="clip0_522_4875">
<rect width="54" height="54" fill="white"/>
</clipPath>
</defs>
</svg>
