<svg width="56" height="56" viewBox="0 0 56 56" fill="none" xmlns="http://www.w3.org/2000/svg">
<path d="M28 56C20.5211 56 13.4894 53.0875 8.20099 47.799C2.91254 42.5106 0 35.4789 0 28C0 20.5211 2.91254 13.4894 8.20099 8.20099C13.4894 2.91254 20.5211 0 28 0C35.4789 0 42.5106 2.91254 47.799 8.20099C53.0875 13.4894 56 20.5211 56 28C56 33.5269 54.3598 38.902 51.2559 43.5441C50.5847 44.5481 49.226 44.8181 48.2216 44.1465C47.2175 43.4753 46.9475 42.1166 47.6191 41.1122C50.2399 37.1922 51.625 32.6583 51.625 28C51.625 14.9733 41.0267 4.375 28 4.375C14.9733 4.375 4.375 14.9733 4.375 28C4.375 41.0267 14.9733 51.625 28 51.625C32.3207 51.625 36.5471 50.4484 40.2214 48.2228C41.2545 47.5969 42.5994 47.9268 43.2258 48.9603C43.8517 49.9938 43.5214 51.3387 42.4879 51.9647C38.13 54.6046 33.1201 56 28 56ZM38.0638 42.367C39.5852 41.2553 40.1906 39.3818 39.6057 37.5938L37.7404 31.8901L42.6289 28.3615C44.1418 27.2694 44.7698 25.334 44.1918 23.546C43.606 21.7336 42.0056 20.5625 40.1137 20.5625H34.0361L32.1866 14.8716C31.6004 13.0797 29.9999 11.9219 28.1094 11.9219C26.2188 11.9219 24.6183 13.0797 24.0309 14.8759L22.1826 20.5625H16.105C14.2132 20.5625 12.6127 21.7336 12.027 23.5455C11.4489 25.334 12.077 27.2694 13.5898 28.3615L18.4784 31.8896L16.613 37.5938C16.0281 39.3818 16.6335 41.2553 18.155 42.3666C19.6862 43.4851 21.6686 43.4907 23.2054 42.3811L28.1094 38.8405L33.0133 42.3811C33.7785 42.9335 34.6535 43.2095 35.5289 43.2095C36.4116 43.2095 37.2947 42.9284 38.0638 42.367ZM22.2228 24.9375C24.0963 24.9375 25.7347 23.7771 26.3013 22.0455L28.1098 16.4814L29.9188 22.0493C30.484 23.7771 32.1225 24.9375 33.996 24.9375H39.8971L35.1192 28.3862C33.6055 29.4787 32.9778 31.4026 33.5572 33.1735L35.3568 38.6769L30.6246 35.2606C29.888 34.7291 29.0181 34.448 28.1094 34.448C27.2002 34.448 26.3303 34.7287 25.5938 35.2606L20.8616 38.6773L22.6616 33.174C23.2409 31.4026 22.6129 29.4787 21.0995 28.3862L16.3221 24.9375H22.2228ZM40.1218 24.9379H40.1227H40.1218Z" fill="#1F99F1"/>
</svg>
