<svg width="54" height="54" viewBox="0 0 54 54" fill="none" xmlns="http://www.w3.org/2000/svg">
<path d="M48.3116 32.1232C47.6712 31.4828 46.8865 31.0392 46.0309 30.8216C46.4244 29.192 45.9865 27.4009 44.7169 26.1313C44.064 25.4783 43.273 25.0463 42.4371 24.8332C42.8085 23.2978 42.465 21.4829 41.1213 20.1393C40.6706 19.6886 40.1537 19.3441 39.602 19.1029L44.7176 13.9879C46.6577 12.0455 46.6612 8.90135 44.7169 6.95726C42.775 5.01528 39.6305 5.01191 37.6856 6.95726L21.7282 22.9146L20.795 18.8705C20.2592 16.5473 18.5024 14.6958 16.2102 14.0385C13.9185 13.381 11.4475 14.0202 9.76176 15.7068C9.76155 15.707 9.76134 15.7072 9.76102 15.7075C9.46429 16.0045 9.29731 16.4079 9.29773 16.8278L9.31746 36.509L4.69721 41.1293C4.07928 41.7473 4.07928 42.7491 4.69721 43.367L14.8659 53.5358C15.1625 53.8325 15.565 53.9993 15.9846 53.9993H30.7065C32.4865 53.9993 34.1605 53.3056 35.4198 52.0462L48.3115 39.1546C50.2295 37.2383 50.2774 34.0863 48.3116 32.1232ZM39.9232 28.3688C40.63 27.6621 41.7734 27.663 42.4792 28.3688C43.1839 29.0736 43.1839 30.2202 42.4792 30.9249L38.8837 34.5204C38.1757 35.2284 37.0321 35.2249 36.328 34.5207C35.6232 33.8155 35.6231 32.6687 36.3275 31.9643L39.9232 28.3688ZM34.09 29.7267C33.3854 30.4314 32.2387 30.431 31.534 29.7267C30.8292 29.022 30.8292 27.8754 31.534 27.1707L36.3276 22.377C37.0329 21.6718 38.1795 21.6727 38.8837 22.377C39.5905 23.0837 39.5894 24.2274 38.8837 24.933C38.8835 24.9331 38.8832 24.9334 38.8833 24.9333C38.8837 24.933 34.09 29.7267 34.09 29.7267ZM33.1824 49.8083C32.5302 50.4606 31.6279 50.8346 30.7066 50.8346H16.6401L8.05375 42.2481L12.0192 38.2825C12.3164 37.9854 12.4831 37.5823 12.4827 37.1621L12.4631 17.5564C13.2922 16.9798 14.3474 16.7962 15.3377 17.0803C16.5245 17.4206 17.4341 18.3791 17.7114 19.5817L19.287 26.4079C19.3547 26.7014 19.5037 26.9629 19.7091 27.1688C19.7093 27.1694 20.9081 28.3688 20.9081 28.3688C23.5951 31.0558 23.5951 35.428 20.9081 38.1151C20.2901 38.733 20.2901 39.7348 20.9081 40.3528C21.526 40.9708 22.528 40.9706 23.1457 40.3528C27.0666 36.4319 27.0666 30.0522 23.1457 26.1313L23.0663 26.0518L39.9233 9.19481C40.6464 8.4715 41.7911 8.50673 42.4792 9.19492C43.1847 9.9003 43.1851 11.0441 42.4792 11.7509L29.2963 24.933C27.3577 26.8715 27.3577 30.0258 29.2966 31.9647C30.2226 32.89 31.4253 33.3723 32.6406 33.4139C32.6823 34.6292 33.1647 35.8321 34.09 36.7581C35.0152 37.6834 36.2173 38.1659 37.4322 38.2078C37.4749 39.4713 37.9857 40.6529 38.8829 41.5503C39.3274 41.9954 39.842 42.3443 40.4013 42.5898L33.1824 49.8083ZM46.0746 36.9162C46.0743 36.9164 46.074 36.9167 46.0737 36.9169L43.6767 39.3141C42.9801 40.0115 41.8344 40.0273 41.1213 39.3134C40.4102 38.6024 40.4211 37.4583 41.1218 36.7576L43.5186 34.3609C44.2299 33.6497 45.3736 33.6608 46.0745 34.3616C46.7899 35.0759 46.7696 36.222 46.0746 36.9162Z" fill="#1F99F1"/>
<path d="M21.0691 9.93531C21.9429 9.93531 22.6514 9.22687 22.6514 8.35303V1.57393C22.5677 -0.525434 19.5696 -0.523852 19.4868 1.57393V8.35314C19.4868 9.22698 20.1953 9.93531 21.0691 9.93531Z" fill="#1F99F1"/>
<path d="M13.1693 9.47199C13.7872 10.09 14.7892 10.0898 15.4069 9.47199C16.0249 8.85406 16.0249 7.85227 15.4069 7.23434L13.7122 5.53962C13.0944 4.92169 12.0925 4.92169 11.4746 5.53962C10.8566 6.15755 10.8566 7.15934 11.4746 7.77727L13.1693 9.47199Z" fill="#1F99F1"/>
<path d="M28.9669 9.47175L30.6616 7.77703C31.2795 7.1591 31.2795 6.15731 30.6616 5.53938C30.0437 4.92145 29.0419 4.92145 28.4239 5.53938L26.7292 7.2341C26.1113 7.85203 26.1113 8.85382 26.7292 9.47175C27.3471 10.0898 28.349 10.0896 28.9669 9.47175Z" fill="#1F99F1"/>
</svg>
